<?xml version="1.0" standalone="no"?>
<!DOCTYPE svg PUBLIC "-//W3C//DTD SVG 20010904//EN"
 "http://www.w3.org/TR/2001/REC-SVG-20010904/DTD/svg10.dtd">
<svg version="1.0" xmlns="http://www.w3.org/2000/svg"
 width="100.000000pt" height="100.000000pt" viewBox="0 0 100.000000 100.000000"
 preserveAspectRatio="xMidYMid meet">

<g transform="translate(0.000000,100.000000) scale(0.100000,-0.100000)"
fill="#000000" stroke="none">
<path d="M373 939 c-70 -27 -155 -106 -189 -176 -37 -75 -44 -183 -16 -270 38
-120 110 -228 260 -387 l72 -78 73 78 c149 159 221 267 259 387 28 87 21 195
-16 270 -35 72 -119 149 -191 176 -74 28 -180 27 -252 0z m187 -308 c0 -121
-2 -132 -23 -157 -19 -21 -32 -27 -66 -27 -46 0 -91 32 -91 65 0 25 25 22 54
-7 16 -16 31 -23 43 -19 37 13 43 35 43 156 0 111 1 118 20 118 19 0 20 -7 20
-129z"/>
</g>
</svg>
